<svg width="560" height="690" viewBox="0 0 560 690" fill="none" xmlns="http://www.w3.org/2000/svg">
<rect x="215" width="304" height="304" fill="black"/>
<rect x="215" y="345" width="345" height="345" fill="black"/>
<path d="M0 9.85713V0H174V9.85713H126.101V680.143H174V690H0V680.143H44.9663V9.85713H0Z" fill="black"/>
<path d="M355.407 259C342.329 259 330.46 256.536 319.8 251.607C309.141 246.588 300.676 239.374 294.406 229.965C288.135 220.466 285 208.995 285 195.553C285 183.724 287.329 174.135 291.987 166.786C296.645 159.348 302.871 153.523 310.664 149.312C318.457 145.1 327.056 141.963 336.462 139.902C345.957 137.751 355.497 136.049 365.081 134.794C377.622 133.181 387.789 131.971 395.582 131.165C403.465 130.268 409.198 128.79 412.781 126.729C416.454 124.667 418.29 121.083 418.29 115.975V114.899C418.29 101.636 414.662 91.3308 407.406 83.9824C400.24 76.634 389.357 72.9598 374.756 72.9598C359.617 72.9598 347.748 76.2755 339.149 82.907C330.55 89.5385 324.503 96.6181 321.01 104.146L290.912 93.3919C296.287 80.8459 303.453 71.0779 312.41 64.0879C321.458 57.0084 331.311 52.0795 341.971 49.3015C352.72 46.4338 363.29 45 373.681 45C380.309 45 387.923 45.8065 396.523 47.4196C405.212 48.943 413.587 52.1243 421.649 56.9635C429.8 61.8027 436.564 69.1064 441.938 78.8744C447.313 88.6424 450 101.726 450 118.126V254.161H418.29V226.201H416.678C414.528 230.682 410.945 235.476 405.928 240.584C400.912 245.692 394.239 250.039 385.908 253.623C377.577 257.208 367.41 259 355.407 259ZM360.244 230.502C372.785 230.502 383.355 228.038 391.954 223.109C400.643 218.18 407.182 211.818 411.572 204.021C416.05 196.225 418.29 188.025 418.29 179.422V150.387C416.946 152 413.99 153.479 409.422 154.823C404.943 156.077 399.748 157.198 393.836 158.183C388.013 159.08 382.325 159.886 376.771 160.603C371.307 161.23 366.873 161.768 363.469 162.216C355.228 163.291 347.524 165.039 340.358 167.459C333.282 169.789 327.549 173.328 323.16 178.078C318.86 182.738 316.71 189.1 316.71 197.166C316.71 208.188 320.786 216.523 328.937 222.168C337.178 227.724 347.614 230.502 360.244 230.502Z" fill="white"/>
<path d="M486 394V641H456.887L321.51 447.066H319.084V641H289V394H318.113L453.975 588.416H456.401V394H486Z" fill="white"/>
</svg>
